<svg xmlns="http://www.w3.org/2000/svg" width="202.445312" height="291.201416" fill="none" viewBox="0 0 202.445 291.201"><path fill="#F2D7D7" fill-opacity="1.000000" fill-rule="evenodd" d="M202.445 0c0 1.591-.281 3.169-.847 4.733l-3.762-1.359A9.882 9.882 0 0 0 198.445 0zm-5.902 12.34c-1.734 1.793-3.918 3.649-6.547 5.569l-2.355-3.23c2.441-1.786 4.453-3.493 6.031-5.121zm-13.574 10.245a241.943 241.943 0 0 1-7.145 4.22l-1.98-3.475a235.471 235.471 0 0 0 7.023-4.148zm-14.383 8.283-7.25 4.06-1.957-3.49 7.254-4.06zm-14.371 8.187a219.155 219.155 0 0 0-7 4.348l-2.18-3.354a219.903 219.903 0 0 1 7.133-4.429zm-13.762 9.002a103.99 103.99 0 0 0-6.371 5.048l-2.609-3.03a107.17 107.17 0 0 1 6.617-5.244zm-12.176 10.596c-1.918 2.05-3.601 4.122-5.05 6.216l-3.289-2.279c1.562-2.254 3.367-4.476 5.417-6.668zm-8.953 13.082a36.312 36.312 0 0 0-2.414 7.401l-3.914-.82a40.242 40.242 0 0 1 2.676-8.214zm-3.176 15.244c.032 2.564.317 5.19.864 7.88l-3.922.796c-.594-2.938-.91-5.815-.938-8.633zm3.036 15.491a69.616 69.616 0 0 0 3.195 7.358l-3.574 1.794a72.877 72.877 0 0 1-3.379-7.782zm7.156 14.41a114.316 114.316 0 0 0 2.265 3.503 164.898 164.898 0 0 1 2.434 3.719l-3.375 2.147a167.955 167.955 0 0 0-2.379-3.632c-.82-1.22-1.601-2.43-2.347-3.631zm9.109 14.583a138.226 138.226 0 0 1 3.977 7.602l-3.602 1.739a136.405 136.405 0 0 0-3.859-7.381zm7.438 15.458a107.326 107.326 0 0 1 2.886 8.167l-3.824 1.174a102.751 102.751 0 0 0-2.777-7.86zm5.023 16.429a84.186 84.186 0 0 1 1.363 8.657l-3.98.411a79.452 79.452 0 0 0-1.297-8.245zm1.766 17.298a71.433 71.433 0 0 1-.614 8.664l-3.964-.527c.355-2.691.55-5.417.578-8.18zm-2.305 17.218a69.583 69.583 0 0 1-2.742 8.246l-3.711-1.495a65.68 65.68 0 0 0 2.586-7.773zm-6.492 16.136a79.059 79.059 0 0 1-4.57 7.315l-3.274-2.299a74.483 74.483 0 0 0 4.34-6.944zm-9.899 14.145a98.49 98.49 0 0 1-5.96 6.313l-2.79-2.87a93.203 93.203 0 0 0 5.719-6.055zm-12.32 12.019a125.468 125.468 0 0 1-6.898 5.336l-2.34-3.245a121.879 121.879 0 0 0 6.68-5.166zm-13.91 10.075a159.163 159.163 0 0 1-7.445 4.44l-1.957-3.488a157.774 157.774 0 0 0 7.261-4.33zm-14.922 8.406a204.056 204.056 0 0 1-7.824 3.711l-1.637-3.65a198.994 198.994 0 0 0 7.668-3.637zm-15.578 7.014a246.137 246.137 0 0 1-8.129 3.119l-1.367-3.759c2.727-.992 5.39-2.015 7.996-3.068zm-16.031 5.857a298.03 298.03 0 0 1-8.223 2.577l-1.14-3.834c2.753-.82 5.456-1.668 8.109-2.542zm-16.367 4.883c-2.7.728-5.446 1.431-8.235 2.109l-.945-3.886a347.117 347.117 0 0 0 8.14-2.085zm-16.645 4.052c-2.695.591-5.43 1.16-8.2 1.706l-.777-3.924a393.12 393.12 0 0 0 8.122-1.69zm-16.64 3.283-4.282.735-.68-3.942 4.286-.735zm11.019-3.843 1.883 11.308L0 283.158l17.703-14.573zl-3.945.658-1.317-7.891 1.973-.329 1.273 1.544-12.355 10.169-1.27-1.544.703-1.873 14.98 5.613-.698 1.873-1.973.329-1.316-7.891zm-1.973.329 1.317 7.891L3.945 282.5l12.352-10.169z"/></svg>