<svg xmlns="http://www.w3.org/2000/svg" width="30" height="30" fill="none" viewBox="0 0 30 30"><path fill="#fff" d="M13.272 1.594C3.317 3.299 3.674 3.223 3.147 3.686c-.118.105-.287.34-.375.521l-.164.334-.018 10.723c-.018 11.994-.047 11.045.416 11.502.457.45-.012.422 7.254.422h6.492l.147-.13c.21-.193.228-.439.035-.632-.117-.117-.194-.117-6.627-.117h-6.51l-.17-.17-.17-.17V4.829l.135-.259c.299-.597 1.055-.756 1.629-.345.094.064.521.609.955 1.212.434.604.861 1.166.95 1.249.48.445.96.48 1.78.146.54-.223.82-.422.82-.592a.554.554 0 0 0-.28-.44c-.135-.058-.235-.034-.78.177-.574.228-.639.24-.79.17-.106-.053-.47-.499-1.003-1.243-.463-.638-.838-1.172-.838-1.19 0-.01.053-.023.112-.023.064 0 .873-.129 1.804-.293 5.467-.937 11.702-1.992 11.713-1.974.012.012-1.992.844-4.447 1.851-2.455 1.014-4.523 1.893-4.594 1.957-.181.159-.176.416.012.598.076.082.187.147.24.147.053 0 2.76-1.096 6.024-2.438 3.257-1.342 5.964-2.455 6.023-2.467.053-.017.152.03.217.094l.123.123v6.006c0 5.93 0 6.006.117 6.123a.434.434 0 0 0 .639-.041l.123-.152-.012-6.1-.018-6.1-.128-.234c-.27-.498-.756-.797-1.272-.785-.129.006-4.377.715-9.44 1.588"/><path stroke="#fff" stroke-linecap="round" d="M6.738 9.346h13.51m-13.51 2.352h13.51m-13.51 2.343h13.51m-13.51 5.21h5.215m-5.215 2.341h3.953"/><path fill="#fff" d="m16.84 20.28-.545.538-.152-.181c-.381-.451-1.155-.563-1.711-.246-.258.146-.381.287-.897 1.054-.662.985-.715 1.155-.445 1.389.316.27.451.182 1.037-.703.627-.938.72-1.037.996-1.037.258 0 .357.082.55.468.153.305.34.47.522.47.059 0 .364-.247.686-.563l.574-.569.158.188c.252.299.58.44 1.02.44.41 0 .668-.095.955-.37.351-.322.404-.668.14-.855-.216-.153-.427-.106-.68.146-.368.375-.673.305-.942-.228-.335-.663-.54-.65-1.266.058"/><path stroke="#fff" d="m16.84 20.28-.545.538-.152-.181c-.381-.451-1.155-.563-1.711-.246-.258.146-.381.287-.897 1.054-.662.985-.715 1.155-.445 1.389.316.27.451.182 1.037-.703.627-.938.72-1.037.996-1.037.258 0 .357.082.55.468.153.305.34.47.522.47.059 0 .364-.247.686-.563l.574-.569.158.188c.252.299.58.44 1.02.44.41 0 .668-.095.955-.37.351-.322.404-.668.14-.855-.216-.153-.427-.106-.68.146-.368.375-.673.305-.942-.228-.335-.663-.54-.65-1.266.058Z"/><g stroke="#fff" stroke-linecap="round" stroke-linejoin="round" clip-path="url(#a)"><path fill="#222" d="m27.384 17.146-5.114-2.051-5.114 2.051v4.721c.213 1.082 1.534 3.659 5.114 5.311 3.58-1.652 4.9-4.23 5.114-5.311z"/><path d="m20.164 21.267 1.448 1.308 2.763-2.877"/></g><defs><clipPath id="a"><path fill="#fff" d="M15.453 14.545H29.09v13.182H15.453z"/></clipPath></defs></svg>