<svg xmlns="http://www.w3.org/2000/svg" width="40" height="41" fill="none" viewBox="0 0 40 41"><path fill="#fff" d="M13.438 1.867c-2.172.274-4.055.922-5.985 2.055-.851.5-.906.57-.305.36 1.97-.665 4.11.64 4.5 2.741.047.258.07.633.047.836-.03.211-.03.375-.008.375.024 0 .25-.156.5-.351 2.047-1.578 4.68-2.774 7.352-3.352.797-.172 1.266-.234 3.234-.422l.547-.054-1.093-.563c-2.805-1.437-5.829-1.992-8.79-1.625m-8.414 3.86C3.727 6.867 2.531 8.43 1.688 10.07c-2.696 5.235-2.11 11.524 1.507 16.25.422.555 1.61 1.805 2.133 2.242l.367.305-.117-.375c-1.039-3.344-1.148-6.867-.312-10.187.601-2.383 1.695-4.696 3.109-6.57.25-.329.453-.618.453-.641 0-.024-.164-.024-.367.008-.89.101-2.023-.329-2.727-1.024C4.477 8.82 4.36 6.734 5.477 5.461c.367-.414.218-.328-.454.266m-.96 7.898c.351.18.625.625.625 1.016 0 .593-.579 1.172-1.172 1.172-.594 0-1.172-.579-1.172-1.172 0-.375.273-.836.61-1.008.374-.203.726-.203 1.109-.008"/><path fill="#fff" d="M7.64 6.602c-.335.171-.609.632-.609 1.007 0 .594.578 1.172 1.172 1.172s1.172-.578 1.172-1.172c0-.39-.273-.836-.625-1.015-.383-.196-.734-.196-1.11.008m14.274-.079c-3.727.391-7.195 2.063-9.89 4.75-1.868 1.868-3.18 3.993-3.985 6.415-1.96 5.96-.453 12.28 3.984 16.726 1.868 1.867 3.993 3.18 6.415 3.984 5.96 1.961 12.28.454 16.726-3.984 2.727-2.734 4.36-6.164 4.75-10 .211-2.016-.031-4.32-.656-6.383-.156-.5-.258-.695-.469-.875-.547-.484-1.086-.406-1.836.266-.625.555-.914.68-1.64.687-.446 0-.672-.03-.946-.164-.468-.21-.976-.718-1.172-1.164-.265-.593-.273-1.023-.03-1.82.218-.695.218-.711.085-1.063-.156-.398-.406-.625-.828-.75-.258-.078-.375-.062-.93.125-.5.172-.719.211-1.031.172A2.558 2.558 0 0 1 28.5 12.07c-.14-.281-.172-.484-.172-.945.008-.727.133-1.016.688-1.64.672-.75.75-1.29.265-1.837-.18-.21-.375-.312-.875-.468-2.047-.625-4.468-.868-6.492-.657m-1.203 7.024c1.836.351 3.117 2.148 2.82 3.953a3.515 3.515 0 0 1-2.937 2.938c-2.258.375-4.344-1.711-3.969-3.97.328-1.968 2.164-3.28 4.086-2.921M30 20.657c.352.179.625.624.625 1.015 0 .594-.578 1.172-1.172 1.172-.39 0-.836-.274-1.015-.625-.196-.39-.196-.703 0-1.094.289-.57.968-.773 1.562-.469M13.594 23c.351.18.625.625.625 1.016 0 .593-.578 1.172-1.172 1.172-.39 0-.836-.274-1.016-.625-.195-.391-.195-.704 0-1.094.29-.57.969-.774 1.563-.469m6.265 2.406c.461.203.97.711 1.18 1.18.125.266.172.516.172.945 0 .711-.188 1.164-.664 1.64-.477.477-.93.665-1.64.665-2.626 0-3.227-3.625-.743-4.516.484-.172 1.195-.14 1.695.086m7.883 2.203c1.836.352 3.117 2.149 2.82 3.953a3.515 3.515 0 0 1-2.937 2.938c-2.258.375-4.344-1.71-3.969-3.969.328-1.968 2.164-3.281 4.086-2.922"/><path fill="#fff" d="M19.516 15.977c-.336.171-.61.632-.61 1.007 0 .391.274.836.625 1.016.164.086.414.156.547.156.594 0 1.172-.578 1.172-1.172 0-.39-.273-.836-.625-1.015-.383-.196-.734-.196-1.11.008m7.032 14.063c-.336.17-.61.632-.61 1.007 0 .594.579 1.172 1.172 1.172.594 0 1.172-.578 1.172-1.172 0-.39-.273-.836-.625-1.016-.383-.195-.734-.195-1.11.008"/></svg>