<svg xmlns="http://www.w3.org/2000/svg" width="160" height="38" fill="none" viewBox="0 0 160 38"><g fill="#222" clip-path="url(#a)"><path d="m38 16.662-14.477 8.12 4.36 2.69 9.872-5.347a18.488 18.488 0 0 1-6.453 10.681 18.681 18.681 0 0 1-11.8 4.195A18.681 18.681 0 0 1 7.7 32.806a18.488 18.488 0 0 1-6.452-10.681l9.95 5.281 4.278-2.625L1 16.661c.138-1.417.444-2.814.91-4.16l17.576 9.974 17.604-9.978a18.09 18.09 0 0 1 .91 4.162z"/><path d="M19.509 0 3.563 8.965h10.319v5.85l5.532 3.136 5.674-3.217v-5.77h10.184l.139-.077zm42.026 10.735a4.293 4.293 0 0 1 2.52 1.65 4.92 4.92 0 0 1 .89 2.951 5.055 5.055 0 0 1-1.608 3.819 5.895 5.895 0 0 1-4.194 1.52H50.3V2.607h8.433c1.672 0 2.97.45 3.893 1.348a4.176 4.176 0 0 1 1.39 3.136 3.98 3.98 0 0 1-.683 2.236 3.473 3.473 0 0 1-1.797 1.41m-3.654-4.288H54.76v3.064h2.926c.495.034.985-.12 1.374-.43a1.431 1.431 0 0 0 .478-1.119 1.465 1.465 0 0 0-.456-1.079 1.667 1.667 0 0 0-1.202-.436m-3.121 10.31h3.41a2.162 2.162 0 0 0 1.563-.515 1.678 1.678 0 0 0 .556-1.275 1.735 1.735 0 0 0-.556-1.297 2.04 2.04 0 0 0-1.463-.514h-3.51zm21.269 4.214a9.215 9.215 0 0 1-3.65-.663 9.252 9.252 0 0 1-3.097-2.049 9.53 9.53 0 0 1-2.7-6.65 9.53 9.53 0 0 1 2.7-6.65 9.658 9.658 0 0 1 6.71-2.716c2.503 0 4.908.973 6.712 2.716a9.362 9.362 0 0 1 2.582 4.818 9.39 9.39 0 0 1-.543 5.446 9.337 9.337 0 0 1-3.484 4.206 9.267 9.267 0 0 1-5.23 1.525zm0-4.534a4.54 4.54 0 0 0 3.337-1.37 4.676 4.676 0 0 0 1.363-3.455 4.796 4.796 0 0 0-1.413-3.45 4.698 4.698 0 0 0-3.337-1.397 4.68 4.68 0 0 0-3.338 1.397 5.046 5.046 0 0 0-1.353 3.441 5.04 5.04 0 0 0 1.353 3.441A4.539 4.539 0 0 0 76 16.44zm20.394 4.506a9.093 9.093 0 0 1-6.602-2.572 8.948 8.948 0 0 1-2.03-3.074 8.986 8.986 0 0 1-.624-3.635 9.204 9.204 0 0 1 .632-3.626 9.169 9.169 0 0 1 2-3.083 9.115 9.115 0 0 1 3.046-2.043 9.077 9.077 0 0 1 3.6-.674 10.276 10.276 0 0 1 4.45.956 8.746 8.746 0 0 1 3.277 2.644l-2.898 3.058c-1.395-1.49-2.906-2.236-4.534-2.236a4.713 4.713 0 0 0-3.482 1.42 4.973 4.973 0 0 0-1.39 3.6 4.847 4.847 0 0 0 1.39 3.528 4.748 4.748 0 0 0 3.46 1.398 5.856 5.856 0 0 0 2.583-.626 5.886 5.886 0 0 0 2.045-1.705l3.02 2.918a9.687 9.687 0 0 1-3.337 2.717 10.048 10.048 0 0 1-4.606 1.035m13.374-.269h-5.29l5.607-9.124-5.14-8.946h5.234l2.854 5.535 3.121-5.535h5.284l-5.507 8.946 5.385 9.135h-5.213l-3.12-5.708z"/><path d="M130.774 20.973a9.245 9.245 0 0 1-6.747-2.711 9.53 9.53 0 0 1-2.701-6.65 9.53 9.53 0 0 1 2.701-6.65 9.66 9.66 0 0 1 6.713-2.717c2.504 0 4.91.973 6.714 2.716a9.365 9.365 0 0 1 2.585 4.826 9.39 9.39 0 0 1-.551 5.451 9.335 9.335 0 0 1-3.496 4.206 9.265 9.265 0 0 1-5.24 1.512zm0-4.534a4.527 4.527 0 0 0 3.337-1.37 4.692 4.692 0 0 0 1.369-3.455 4.8 4.8 0 0 0-1.413-3.45 4.699 4.699 0 0 0-3.338-1.397 4.675 4.675 0 0 0-3.337 1.398 5.045 5.045 0 0 0-1.354 3.44c0 1.28.484 2.51 1.354 3.442a4.512 4.512 0 0 0 3.36 1.392zM157.09 2.607v13.859h1.975v7.91h-4.534v-3.672h-9.016v3.673h-4.556v-7.939h1.669c1.253-2.397 2.154-6.167 2.703-11.31l.295-2.55zm-9.768 13.859h5.24v-9.6h-2.998l-.172 1.175a39.915 39.915 0 0 1-2.07 8.397zM50.545 36.97v-1.778h.257a.474.474 0 0 0 .363-.166c.106-.111.194-.288.265-.53.075-.242.134-.56.174-.953.045-.399.078-.886.098-1.46l.038-1.514h3.458v4.623h.68v1.778h-.748v-1.029h-3.836v1.03zm1.331-1.778h2.467v-3.874h-1.816l-.023.878a17.6 17.6 0 0 1-.09 1.475 4.637 4.637 0 0 1-.197.969c-.086.247-.2.431-.34.552m7.252.787c-.388 0-.739-.076-1.051-.227a2.547 2.547 0 0 1-.81-.613 2.998 2.998 0 0 1-.53-.878 2.885 2.885 0 0 1-.181-1.006c0-.358.065-.699.197-1.021.13-.328.312-.618.544-.87.232-.258.505-.46.818-.606.317-.151.66-.227 1.029-.227.383 0 .731.078 1.044.235.317.156.587.366.81.628.226.262.4.555.521.878a2.744 2.744 0 0 1-.008 2.02 2.821 2.821 0 0 1-.536.87 2.565 2.565 0 0 1-.825.598 2.38 2.38 0 0 1-1.022.219m-1.71-2.724a2.26 2.26 0 0 0 .462 1.37c.151.181.333.325.545.43.212.107.449.16.711.16a1.542 1.542 0 0 0 1.256-.613c.146-.192.257-.404.333-.636.076-.237.113-.474.113-.71 0-.253-.04-.495-.12-.727a1.846 1.846 0 0 0-.341-.628 1.638 1.638 0 0 0-.545-.44 1.504 1.504 0 0 0-.696-.158c-.272 0-.515.055-.726.166a1.65 1.65 0 0 0-.538.447 2.141 2.141 0 0 0-.454 1.339m4.979-.038c0-.328.058-.648.174-.96.116-.318.285-.606.507-.863A2.487 2.487 0 0 1 65 30.539c.484 0 .903.11 1.256.333.353.217.615.497.787.84l-.666.446a1.425 1.425 0 0 0-.386-.515 1.331 1.331 0 0 0-.5-.264 1.896 1.896 0 0 0-.522-.076c-.282 0-.53.058-.741.174-.212.111-.391.26-.537.446-.142.187-.25.396-.326.628-.07.232-.106.465-.106.697 0 .257.043.507.129.749.086.237.204.449.356.635.156.182.34.326.552.431.212.106.444.16.696.16.171 0 .35-.03.537-.091a1.6 1.6 0 0 0 .515-.28c.161-.131.287-.303.378-.515l.704.401a1.672 1.672 0 0 1-.522.681 2.47 2.47 0 0 1-.787.424 2.69 2.69 0 0 1-.855.144 2.29 2.29 0 0 1-1.037-.235 2.694 2.694 0 0 1-.81-.636 3.074 3.074 0 0 1-.53-.892 2.822 2.822 0 0 1-.188-1.007m9.606-1.899h-1.786v4.623h-.855v-4.623H67.57v-.749h4.434zm1.416 4.653v-.71h.386c.126 0 .222-.031.288-.092a.945.945 0 0 0 .19-.272l.158-.348-2.187-3.98h.938l1.635 3.11 1.385-3.11h.9l-2.18 4.729c-.12.247-.254.421-.4.522-.141.101-.336.151-.583.151zm4.38-.03V30.57h4.245v5.372h-.855v-4.623h-2.542v4.623zm10.023-5.372v5.372h-.855v-2.368H84.26v2.368h-.848V30.57h.848v2.247h2.708V30.57zm1.364 5.372V30.57h.847v1.982h1.203c.394 0 .724.071.991.212.273.137.477.33.613.583.141.252.212.55.212.893 0 .323-.068.615-.204.877a1.47 1.47 0 0 1-.598.606c-.262.146-.583.22-.96.22zm.847-.704h1.135c.237 0 .431-.045.583-.136a.78.78 0 0 0 .325-.363 1.2 1.2 0 0 0 .106-.5c0-.17-.033-.332-.098-.483a.738.738 0 0 0-.318-.364c-.147-.09-.348-.136-.606-.136h-1.127zm3.867.704v-5.364h.854v5.364zm5.89-.749v.75h-3.685v-5.373h3.617v.75h-2.77v1.527h2.4v.704h-2.4v1.642zm4.361-4.623h.802l2.089 5.372h-.893l-.568-1.46h-2.073l-.56 1.46h-.9zm1.264 3.284-.863-2.353-.893 2.353zm6.664.703c0 .288-.075.535-.227.742a1.406 1.406 0 0 1-.597.477c-.253.11-.53.166-.833.166h-2.565V30.57h2.77c.252 0 .469.068.65.204.187.131.328.303.424.515a1.465 1.465 0 0 1-.053 1.392c-.131.227-.32.396-.568.507.308.09.55.257.727.5.181.236.272.527.272.87m-.87-.158a.85.85 0 0 0-.098-.409.758.758 0 0 0-.258-.303.604.604 0 0 0-.378-.12h-1.77v1.641h1.717a.754.754 0 0 0 .681-.4.819.819 0 0 0 .106-.41m-2.504-3.095v1.581h1.558a.73.73 0 0 0 .379-.098.776.776 0 0 0 .264-.28.84.84 0 0 0 .099-.409.866.866 0 0 0-.091-.408.679.679 0 0 0-.25-.28.603.603 0 0 0-.355-.106zm8.307.015h-1.786v4.623h-.855v-4.623h-1.793v-.749h4.434zm2.956 4.661c-.388 0-.739-.076-1.052-.227a2.554 2.554 0 0 1-.809-.613 2.997 2.997 0 0 1-.53-.878 2.884 2.884 0 0 1-.181-1.006 2.818 2.818 0 0 1 .741-1.892c.232-.257.505-.459.817-.605a2.364 2.364 0 0 1 1.029-.227c.384 0 .732.078 1.044.235.318.156.588.366.81.628.227.262.401.555.522.878a2.748 2.748 0 0 1-.007 2.02 2.84 2.84 0 0 1-.538.87 2.57 2.57 0 0 1-.824.598 2.389 2.389 0 0 1-1.022.219m-1.71-2.724c0 .252.041.497.121.734.081.237.194.449.341.636.151.181.333.325.545.43.211.107.448.16.711.16a1.542 1.542 0 0 0 1.256-.613 2.14 2.14 0 0 0 .333-.636c.075-.237.113-.474.113-.71 0-.253-.04-.495-.121-.727a1.857 1.857 0 0 0-.34-.628 1.643 1.643 0 0 0-.545-.44 1.505 1.505 0 0 0-.696-.158 1.544 1.544 0 0 0-1.264.613 2.148 2.148 0 0 0-.454 1.34m9.836 2.686v-3.828l-1.581 2.905h-.5l-1.589-2.905v3.828h-.847V30.57h.908l1.778 3.284 1.778-3.284h.908v5.372zm4.45.038c-.388 0-.739-.076-1.052-.227a2.554 2.554 0 0 1-.809-.613 2.997 2.997 0 0 1-.53-.878 2.885 2.885 0 0 1-.182-1.006 2.818 2.818 0 0 1 .742-1.892c.232-.257.504-.459.817-.605a2.364 2.364 0 0 1 1.029-.227c.384 0 .732.078 1.044.235.318.156.588.366.81.628.227.262.401.555.522.878a2.73 2.73 0 0 1-.008 2.02 2.819 2.819 0 0 1-.537.87 2.57 2.57 0 0 1-.824.598 2.389 2.389 0 0 1-1.022.219m-1.71-2.724a2.254 2.254 0 0 0 .462 1.37c.151.181.333.325.544.43.212.107.449.16.712.16a1.542 1.542 0 0 0 1.256-.613 2.14 2.14 0 0 0 .333-.636c.075-.237.113-.474.113-.71 0-.253-.04-.495-.121-.727a1.857 1.857 0 0 0-.34-.628 1.643 1.643 0 0 0-.545-.44 1.505 1.505 0 0 0-.696-.158 1.544 1.544 0 0 0-1.264.613 2.148 2.148 0 0 0-.454 1.34m5.326 2.686V30.57h3.776v.742h-2.928v1.505h1.574c.595 0 1.041.142 1.339.424.298.277.446.646.446 1.105 0 .307-.065.582-.196.824a1.387 1.387 0 0 1-.575.568c-.253.136-.573.204-.961.204zm.848-.741h1.513c.232 0 .419-.043.56-.129a.735.735 0 0 0 .31-.325.995.995 0 0 0 .015-.832.627.627 0 0 0-.302-.303c-.141-.081-.341-.121-.598-.121h-1.498zm4.344.741V30.57h.847v4.177l2.868-4.177h.794v5.372h-.847v-4.108l-2.837 4.108zm9.394 0v-4.623h-1.793l-.03.999a13.47 13.47 0 0 1-.174 1.793c-.086.47-.209.84-.371 1.112a1.432 1.432 0 0 1-.605.575 2.074 2.074 0 0 1-.87.167v-.742a.94.94 0 0 0 .492-.128c.141-.091.259-.25.355-.477.101-.227.179-.545.235-.953.06-.414.101-.941.121-1.582l.053-1.513h3.442v5.372zm2.258 0V30.57h.848v4.177l2.867-4.177h.795v5.372h-.848v-4.108l-2.837 4.108z"/></g><defs><clipPath id="a"><path fill="#fff" d="M0 0h159.824v38H0z"/></clipPath></defs></svg>