<svg xmlns="http://www.w3.org/2000/svg" width="160" height="38" fill="none" viewBox="0 0 160 38"><g fill="#fff" clip-path="url(#a)"><path d="m38 16.662-14.477 8.12 4.36 2.69 9.871-5.347a18.489 18.489 0 0 1-6.452 10.681 18.681 18.681 0 0 1-11.8 4.195A18.681 18.681 0 0 1 7.7 32.806a18.488 18.488 0 0 1-6.452-10.681l9.95 5.281 4.277-2.625L1 16.661c.138-1.417.443-2.814.91-4.16l17.576 9.974 17.604-9.978a18.09 18.09 0 0 1 .91 4.162z"/><path d="M19.509 0 3.563 8.965h10.319v5.85l5.532 3.136 5.674-3.217v-5.77h10.184l.139-.077zm42.026 10.735a4.293 4.293 0 0 1 2.52 1.65 4.92 4.92 0 0 1 .89 2.951 5.055 5.055 0 0 1-1.608 3.819 5.895 5.895 0 0 1-4.194 1.52h-8.845V2.607h8.433c1.673 0 2.97.45 3.894 1.348a4.174 4.174 0 0 1 1.39 3.136 3.99 3.99 0 0 1-.684 2.236 3.474 3.474 0 0 1-1.796 1.41m-3.655-4.29h-3.12v3.064h2.925c.496.034.986-.12 1.374-.43a1.431 1.431 0 0 0 .479-1.119 1.466 1.466 0 0 0-.456-1.079 1.666 1.666 0 0 0-1.202-.436m-3.12 10.31h3.41a2.162 2.162 0 0 0 1.562-.515 1.675 1.675 0 0 0 .557-1.275 1.737 1.737 0 0 0-.557-1.296 2.04 2.04 0 0 0-1.462-.515h-3.51zm21.266 4.216a9.215 9.215 0 0 1-3.65-.663 9.252 9.252 0 0 1-3.097-2.049 9.53 9.53 0 0 1-2.7-6.65 9.53 9.53 0 0 1 2.7-6.65 9.658 9.658 0 0 1 6.711-2.716c2.502 0 4.907.973 6.711 2.716a9.363 9.363 0 0 1 2.583 4.818 9.392 9.392 0 0 1-.544 5.446 9.337 9.337 0 0 1-3.484 4.206 9.267 9.267 0 0 1-5.23 1.525zm0-4.534a4.54 4.54 0 0 0 3.338-1.37 4.676 4.676 0 0 0 1.362-3.455 4.795 4.795 0 0 0-1.412-3.45 4.698 4.698 0 0 0-3.338-1.397 4.68 4.68 0 0 0-3.337 1.397 5.046 5.046 0 0 0-1.354 3.441c0 1.279.484 2.509 1.354 3.441a4.538 4.538 0 0 0 3.36 1.393zm20.395 4.506a9.094 9.094 0 0 1-6.603-2.572 8.949 8.949 0 0 1-2.03-3.074 8.985 8.985 0 0 1-.623-3.635 9.206 9.206 0 0 1 .632-3.626 9.169 9.169 0 0 1 2-3.083 9.114 9.114 0 0 1 3.046-2.043 9.077 9.077 0 0 1 3.6-.674 10.278 10.278 0 0 1 4.45.956 8.746 8.746 0 0 1 3.277 2.644l-2.898 3.058c-1.395-1.49-2.906-2.236-4.534-2.236a4.713 4.713 0 0 0-3.482 1.42 4.973 4.973 0 0 0-1.39 3.6 4.848 4.848 0 0 0 1.39 3.528 4.748 4.748 0 0 0 3.46 1.398 5.856 5.856 0 0 0 2.583-.626 5.885 5.885 0 0 0 2.045-1.705l3.02 2.918a9.685 9.685 0 0 1-3.337 2.717 10.05 10.05 0 0 1-4.606 1.035m13.373-.269h-5.29l5.607-9.124-5.139-8.946h5.234l2.853 5.535 3.121-5.535h5.284l-5.507 8.946 5.385 9.135h-5.212l-3.121-5.708z"/><path d="M130.773 20.973a9.222 9.222 0 0 1-6.747-2.711 9.529 9.529 0 0 1-2.7-6.65c0-2.487.969-4.874 2.7-6.65a9.665 9.665 0 0 1 6.714-2.717c2.503 0 4.909.973 6.714 2.716a9.39 9.39 0 0 1 2.034 10.277 9.335 9.335 0 0 1-3.496 4.206 9.27 9.27 0 0 1-5.241 1.512zm0-4.534a4.532 4.532 0 0 0 3.338-1.37 4.689 4.689 0 0 0 1.368-3.455 4.805 4.805 0 0 0-1.413-3.45 4.684 4.684 0 0 0-6.674 0 5.045 5.045 0 0 0-1.354 3.442c0 1.278.484 2.508 1.354 3.441a4.512 4.512 0 0 0 3.359 1.392zM157.09 2.607v13.859h1.975v7.91h-4.534v-3.672h-9.016v3.673h-4.556v-7.939h1.669c1.253-2.397 2.154-6.167 2.703-11.31l.295-2.55zm-9.768 13.859h5.24v-9.6h-2.998l-.172 1.175a39.977 39.977 0 0 1-2.07 8.397zM50.544 36.97v-1.778h.257a.474.474 0 0 0 .363-.166c.106-.111.194-.288.265-.53.076-.242.134-.56.174-.953.045-.399.078-.886.098-1.46l.038-1.514h3.458v4.623h.681v1.778h-.749v-1.029h-3.836v1.03zm1.331-1.778h2.467v-3.874h-1.816l-.023.878c-.015.58-.045 1.072-.09 1.475a4.63 4.63 0 0 1-.197.969c-.086.247-.2.431-.34.552m7.252.787c-.388 0-.738-.076-1.051-.227a2.548 2.548 0 0 1-.81-.613 2.998 2.998 0 0 1-.53-.878 2.883 2.883 0 0 1-.181-1.006 2.818 2.818 0 0 1 .742-1.892c.231-.257.504-.459.817-.605.317-.151.66-.227 1.029-.227.383 0 .731.078 1.044.235.318.156.588.366.81.628.226.262.4.555.522.878a2.746 2.746 0 0 1-.008 2.02 2.82 2.82 0 0 1-.537.87 2.565 2.565 0 0 1-.825.598 2.38 2.38 0 0 1-1.022.219m-1.71-2.724a2.262 2.262 0 0 0 .462 1.37c.151.181.333.325.545.43.212.107.449.16.711.16a1.543 1.543 0 0 0 1.257-.613c.145-.192.256-.404.332-.636a2.33 2.33 0 0 0 .114-.71c0-.253-.04-.495-.121-.727a1.848 1.848 0 0 0-.341-.628 1.636 1.636 0 0 0-.545-.44 1.504 1.504 0 0 0-.696-.158c-.272 0-.514.055-.726.166a1.65 1.65 0 0 0-.538.447 2.141 2.141 0 0 0-.454 1.339m4.979-.038c0-.328.058-.648.174-.96.116-.318.285-.606.507-.863a2.44 2.44 0 0 1 .825-.62A2.486 2.486 0 0 1 65 30.539c.484 0 .903.11 1.256.333.353.217.615.497.787.84l-.666.446a1.41 1.41 0 0 0-.386-.515 1.33 1.33 0 0 0-.5-.264 1.895 1.895 0 0 0-.521-.076c-.283 0-.53.058-.742.174-.212.111-.391.26-.537.446-.142.187-.25.396-.326.628-.07.232-.106.465-.106.697a2.199 2.199 0 0 0 .485 1.384c.156.182.34.326.552.431.212.106.444.16.696.16a1.724 1.724 0 0 0 1.052-.371c.161-.131.287-.303.378-.515l.704.401a1.673 1.673 0 0 1-.522.681 2.47 2.47 0 0 1-.787.424 2.69 2.69 0 0 1-.855.144c-.378 0-.724-.079-1.037-.235a2.693 2.693 0 0 1-.81-.636 3.074 3.074 0 0 1-.529-.892 2.822 2.822 0 0 1-.19-1.007m9.606-1.899h-1.785v4.623h-.855v-4.623h-1.794v-.749h4.434zm1.417 4.653v-.71h.386c.126 0 .221-.031.287-.092a.945.945 0 0 0 .19-.272l.158-.348-2.187-3.98h.939l1.634 3.11 1.385-3.11h.9l-2.18 4.729c-.12.247-.254.421-.4.522-.141.101-.336.151-.583.151zm4.38-.03V30.57h4.244v5.372h-.855v-4.623h-2.542v4.623zm10.023-5.372v5.372h-.855v-2.368h-2.71v2.368h-.847V30.57h.848v2.247h2.709V30.57zm1.363 5.372V30.57h.847v1.982h1.203c.394 0 .724.071.992.212.272.137.476.33.612.583.142.252.212.55.212.893 0 .323-.068.615-.204.877a1.47 1.47 0 0 1-.598.606c-.262.146-.582.22-.96.22zm.847-.704h1.135c.237 0 .431-.045.583-.136a.78.78 0 0 0 .325-.363 1.21 1.21 0 0 0 .106-.5c0-.17-.033-.332-.098-.483a.738.738 0 0 0-.318-.364c-.146-.09-.348-.136-.605-.136h-1.128zm3.867.704v-5.364h.855v5.364zm5.89-.749v.75h-3.684v-5.373h3.616v.75h-2.77v1.527h2.4v.704h-2.4v1.642zm4.361-4.623h.802l2.089 5.372h-.893l-.568-1.46h-2.073l-.56 1.46h-.9zm1.264 3.284-.863-2.353-.893 2.353zm6.664.703c0 .288-.075.535-.227.742a1.406 1.406 0 0 1-.597.477c-.253.11-.53.166-.833.166h-2.565V30.57h2.77c.252 0 .469.068.65.204.187.131.328.303.424.515a1.465 1.465 0 0 1-.053 1.392c-.131.227-.32.396-.567.507.307.09.549.257.726.5.182.236.272.527.272.87m-.87-.158a.85.85 0 0 0-.098-.409.756.756 0 0 0-.257-.303.607.607 0 0 0-.379-.12h-1.77v1.641h1.717a.754.754 0 0 0 .681-.4.819.819 0 0 0 .106-.41m-2.504-3.095v1.581h1.558a.73.73 0 0 0 .379-.098.787.787 0 0 0 .265-.28.85.85 0 0 0 .098-.409.866.866 0 0 0-.091-.408.672.672 0 0 0-.25-.28.601.601 0 0 0-.355-.106zm8.307.015h-1.785v4.623h-.855v-4.623h-1.794v-.749h4.434zm2.956 4.661a2.38 2.38 0 0 1-1.051-.227 2.547 2.547 0 0 1-.81-.613 2.997 2.997 0 0 1-.53-.878 2.884 2.884 0 0 1-.181-1.006c0-.358.065-.699.196-1.021.132-.328.313-.618.545-.87.232-.258.505-.46.817-.606a2.364 2.364 0 0 1 1.029-.227c.384 0 .732.078 1.045.235.317.156.587.366.809.628.227.262.401.555.522.878a2.748 2.748 0 0 1-.007 2.02 2.819 2.819 0 0 1-.537.87 2.575 2.575 0 0 1-.825.598 2.385 2.385 0 0 1-1.022.219m-1.71-2.724c0 .252.041.497.121.734.081.237.195.449.341.636.151.181.333.325.545.43.212.107.449.16.711.16a1.542 1.542 0 0 0 1.256-.613 2.14 2.14 0 0 0 .333-.636c.075-.237.113-.474.113-.71 0-.253-.04-.495-.121-.727a1.84 1.84 0 0 0-.34-.628 1.643 1.643 0 0 0-.545-.44 1.505 1.505 0 0 0-.696-.158c-.273 0-.515.055-.726.166a1.65 1.65 0 0 0-.538.447 2.171 2.171 0 0 0-.34.628 2.27 2.27 0 0 0-.114.711m9.836 2.686v-3.828l-1.581 2.905h-.499l-1.589-2.905v3.828h-.848V30.57h.908l1.778 3.284 1.778-3.284h.908v5.372zm4.45.038c-.388 0-.739-.076-1.052-.227a2.554 2.554 0 0 1-.809-.613 2.997 2.997 0 0 1-.53-.878 2.884 2.884 0 0 1-.181-1.006c0-.358.065-.699.196-1.021.132-.328.313-.618.545-.87.232-.258.505-.46.817-.606a2.364 2.364 0 0 1 1.029-.227c.384 0 .732.078 1.045.235.317.156.587.366.809.628.227.262.401.555.522.878a2.748 2.748 0 0 1-.007 2.02 2.822 2.822 0 0 1-.538.87 2.57 2.57 0 0 1-.824.598 2.389 2.389 0 0 1-1.022.219m-1.71-2.724c0 .252.041.497.121.734.081.237.194.449.341.636.151.181.333.325.545.43.211.107.448.16.711.16a1.542 1.542 0 0 0 1.256-.613 2.14 2.14 0 0 0 .333-.636c.075-.237.113-.474.113-.71 0-.253-.04-.495-.121-.727a1.857 1.857 0 0 0-.34-.628 1.643 1.643 0 0 0-.545-.44 1.505 1.505 0 0 0-.696-.158 1.544 1.544 0 0 0-1.264.613 2.148 2.148 0 0 0-.454 1.34m5.327 2.686V30.57h3.775v.742h-2.928v1.505h1.574c.595 0 1.041.142 1.339.424.298.277.447.646.447 1.105 0 .307-.066.582-.197.824a1.387 1.387 0 0 1-.575.568c-.252.136-.573.204-.961.204zm.847-.741h1.513c.232 0 .419-.043.56-.129a.73.73 0 0 0 .31-.325 1.011 1.011 0 0 0 .016-.832.633.633 0 0 0-.303-.303c-.141-.081-.341-.121-.598-.121h-1.498zm4.344.741V30.57h.847v4.177l2.868-4.177h.795v5.372h-.848v-4.108l-2.837 4.108zm9.395 0V31.32h-1.794l-.03.999a13.47 13.47 0 0 1-.174 1.793c-.086.47-.209.84-.371 1.112a1.432 1.432 0 0 1-.605.575 2.074 2.074 0 0 1-.87.167v-.742a.93.93 0 0 0 .492-.128c.141-.091.259-.25.355-.477.101-.227.179-.545.235-.953.06-.414.101-.941.121-1.582l.053-1.513h3.443v5.372zm2.257 0V30.57h.848v4.177l2.867-4.177h.795v5.372h-.848v-4.108l-2.837 4.108z"/></g><defs><clipPath id="a"><path fill="#fff" d="M0 0h159.824v38H0z"/></clipPath></defs></svg>